# xmcd CD database file
#
# Track frame offsets:
#	183
#	13410
#	28160
#	40900
#	52220
#	63068
#	74425
#	85553
#	96008
#	107475
#	119403
#	129878
#	142045
#	153850
#	161005
#	172895
#	182970
#	195950
#	208553
#	219280
#	228973
#	236925
#	248290
#	259600
#
# Disc length: 3606 seconds
#
# Revision: 1
# Processed by: cddbd v1.4PL0 Copyright (c) Steve Scherf et al.
# Submitted via: CDex 1.40Beta9
#
DISCID=410e1418
DTITLE=Carlos Gardel - Está Siempre Vivo
DYEAR=1990
DGENRE=Tango
TTITLE0=Carlos Gardel - El Carretero
TTITLE1=Carlos Gardel - Mi Noche Triste
TTITLE2=Carlos Gardel - Ramona
TTITLE3=Alberto Castellanos - Carlos Gardel - Por Tus Ojos Negros
TTITLE4=Carlos Gardel - La Violeta
TTITLE5=Carlos Gardel - Caminito
TTITLE6=Carlos Gardel - Las Flores De Tu Balcón
TTITLE7=Carlos Gardel - Recuerdo Malevo
TTITLE8=Carlos Gardel - Parlez-Moi D'Amour
TTITLE9=Carlos Gardel - Viejo Smoking
TTITLE10=Carlos Gardel - La Muchacha Del Circo
TTITLE11=Terig Tucci - Carlos Gardel - Lejana Tierra Mía
TTITLE12=Carlos Gardel - Como Se Canta En Nápoles
TTITLE13=Carlos Gardel - Mañanitas De Campo
TTITLE14=Carlos Gardel - El Quinielero
TTITLE15=Carlos Gardel - Primero Campaneala
TTITLE16=Carlos Gardel - La Entrerriana
TTITLE17=Terig Tucci - Carlos Gardel - Soledad
TTITLE18=Carlos Gardel - Araca París
TTITLE19=Carlos Gardel - Medallita De La Suerte
TTITLE20=Carlos Gardel - La Pastelera
TTITLE21=Terig Tucci - Carlos Gardel - Arrabal Amargo
TTITLE22=Carlos Gardel - Compradón
TTITLE23=Carlos Gardel - Sólo Se Quiere Una Vez
EXTD=YEAR: 1990 ID3G: 113
EXTT0=
EXTT1=
EXTT2=
EXTT3=
EXTT4=
EXTT5=
EXTT6=
EXTT7=
EXTT8=
EXTT9=
EXTT10=
EXTT11=
EXTT12=
EXTT13=
EXTT14=
EXTT15=
EXTT16=
EXTT17=
EXTT18=
EXTT19=
EXTT20=
EXTT21=
EXTT22=
EXTT23=
PLAYORDER=
